<!DOCTYPE svg PUBLIC "-//W3C//DTD SVG 20010904//EN"
 "http://www.w3.org/TR/2001/REC-SVG-20010904/DTD/svg10.dtd"><svg version="1.0" xmlns="http://www.w3.org/2000/svg" width="64.000000pt" height="64.000000pt" viewBox="0 0 64.000000 64.000000" preserveAspectRatio="xMidYMid meet"><g transform="translate(0.000000,64.000000) scale(0.100000,-0.100000)"><path d="M217 584c-4-4-7-20-7-36 0-26 2-28 28-21 35 10 129 10 165 0 27-7 28-7 25 25l-3 33-101 3c-55 1-103 0-107-4"/><path d="M235 491c-191-86-126-366 85-366 170 0 260 188 152 317-54 64-157 86-237 49m166-31c101-52 117-185 30-263-71-64-170-59-234 12-38 43-52 86-43 134 21 112 143 169 247 117"/><path d="M242 430c-67-41-80-144-26-201 108-113 290 1 231 144-31 72-133 101-205 57m88-65c0-43 1-45 30-45 17 0 30-4 30-10 0-5-20-10-45-10h-45v48c0 27 3 52 7 55 16 16 23 4 23-38"/><path d="m212 88 3-33h210l3 33c3 32 3 33-20 21-30-16-146-16-176 0-23 12-23 11-20-21"/></g></svg>