<?xml version="1.0" standalone="no"?>
<!DOCTYPE svg PUBLIC "-//W3C//DTD SVG 20010904//EN"
 "http://www.w3.org/TR/2001/REC-SVG-20010904/DTD/svg10.dtd">
<svg version="1.0" xmlns="http://www.w3.org/2000/svg"
 width="256.000000pt" height="256.000000pt" viewBox="0 0 256.000000 256.000000"
 preserveAspectRatio="xMidYMid meet">

<g transform="translate(0.000000,256.000000) scale(0.100000,-0.100000)"
fill="#000000" stroke="none">
<path d="M455 1881 c-306 -242 -443 -357 -450 -376 -8 -24 -6 -30 18 -51 25
-22 37 -24 123 -24 l94 0 0 -533 c0 -496 1 -535 18 -550 19 -18 86 -19 899
-18 397 1 453 3 467 17 11 11 16 35 16 80 0 61 -3 71 -52 151 l-53 86 -5 -109
-5 -109 -137 -3 -138 -3 0 259 c0 207 -3 262 -14 278 -14 18 -29 19 -296 19
-267 0 -282 -1 -296 -19 -11 -16 -14 -71 -14 -278 l0 -258 -135 0 -135 0 0
495 0 495 365 0 365 0 0 94 c0 156 37 290 114 410 20 31 36 60 36 65 0 5 -66
59 -146 120 -102 77 -155 111 -173 111 -19 -1 -146 -96 -466 -349z"/>
<path d="M1711 2219 c-371 -73 -622 -453 -545 -826 29 -141 93 -262 191 -358
35 -34 112 -148 244 -360 105 -171 198 -318 207 -327 25 -29 68 -23 95 14 14
18 107 164 207 323 124 197 200 307 236 344 138 135 206 301 208 501 1 128
-13 187 -71 310 -39 81 -58 107 -137 185 -104 103 -188 152 -320 185 -84 21
-232 26 -315 9z m221 -320 c118 -25 209 -98 262 -209 28 -59 31 -74 31 -160 0
-88 -3 -101 -33 -162 -76 -155 -245 -241 -408 -208 -185 38 -305 187 -305 376
0 171 117 318 286 360 65 16 102 17 167 3z"/>
</g>
</svg>
